#Comment line ignore any data following # character 
#Hierarchical Translation and Rotation (.htr) file 
[Header]	
#Header keywords are followed by a single value 
FileType HTR		#Single word string
DataType HTRS		#Translation followed by rotation and scale data
FileVersion 1		#integer
NumSegments 84		#integer
NumFrames 2		#integer
DataFrameRate 30		#integer, data frame rate in this file
EulerRotationOrder ZYX
CalibrationUnits mm
RotationUnits Degrees
GlobalAxisofGravity Y
BoneLengthAxis Y
ScaleFactor 1.00
[SegmentNames&Hierarchy]
#CHILD	PARENT
MASTER GLOBAL
root MASTER
chest root
L_mid_tent01 root
R_mid_tent01 root
spine01 root
Bip01_Neck chest
L_humerus chest
R_humerus chest
weapon_bone chest
Bip01_Head Bip01_Neck
eye_left_bone Bip01_Head
eye_right_bone Bip01_Head
L_forearm L_humerus
L_front_hand L_forearm
L_weapon_bone L_forearm
L_front_hand01_01 L_front_hand
L_front_hand02_01 L_front_hand
L_front_hand03_01 L_front_hand
L_front_hand01_02 L_front_hand01_01
L_front_hand02_02 L_front_hand02_01
L_front_hand03_02 L_front_hand03_01
R_forearm R_humerus
R_front_hand R_forearm
R_weapon_bone R_forearm
R_front_hand01_01 R_front_hand
R_front_hand02_01 R_front_hand
R_front_hand03_01 R_front_hand
R_front_hand01_02 R_front_hand01_01
R_front_hand02_02 R_front_hand02_01
R_front_hand03_02 R_front_hand03_01
null_rope01_connect L_mid_tent01
Rope1_Seg01 null_rope01_connect
Rope1_Seg02 Rope1_Seg01
Rope1_Seg03 Rope1_Seg02
Rope1_Seg04 Rope1_Seg03
Rope1_Seg05 Rope1_Seg04
Rope1_Seg06 Rope1_Seg05
Rope1_Seg07 Rope1_Seg06
Rope1_Seg09 Rope1_Seg07
L_mid_hand01 Rope1_Seg09
L_mid_hand02 Rope1_Seg09
L_mid_hand03 Rope1_Seg09
null_rope02_connect R_mid_tent01
Rope2_Seg01 null_rope02_connect
Rope2_Seg02 Rope2_Seg01
Rope2_Seg03 Rope2_Seg02
Rope2_Seg04 Rope2_Seg03
Rope2_Seg05 Rope2_Seg04
Rope2_Seg06 Rope2_Seg05
Rope2_Seg07 Rope2_Seg06
Rope2_Seg09 Rope2_Seg07
R_mid_hand01 Rope2_Seg09
R_mid_hand02 Rope2_Seg09
R_mid_hand03 Rope2_Seg09
spine02 spine01
spine03 spine02
pelvis spine03
null_rope03_connect pelvis
null_rope04_connect pelvis
Rope3_Seg01 null_rope03_connect
Rope3_Seg02 Rope3_Seg01
Rope3_Seg03 Rope3_Seg02
Rope3_Seg04 Rope3_Seg03
Rope3_Seg05 Rope3_Seg04
Rope3_Seg06 Rope3_Seg05
Rope3_Seg07 Rope3_Seg06
Rope3_Seg08 Rope3_Seg07
Rope3_Seg09 Rope3_Seg08
R_rear_hand01 Rope3_Seg09
R_rear_hand02 Rope3_Seg09
R_rear_hand03 Rope3_Seg09
Rope4_Seg01 null_rope04_connect
Rope4_Seg02 Rope4_Seg01
Rope4_Seg03 Rope4_Seg02
Rope4_Seg04 Rope4_Seg03
Rope4_Seg05 Rope4_Seg04
Rope4_Seg06 Rope4_Seg05
Rope4_Seg07 Rope4_Seg06
Rope4_Seg08 Rope4_Seg07
Rope4_Seg09 Rope4_Seg08
L_rear_hand01 Rope4_Seg09
L_rear_hand02 Rope4_Seg09
L_rear_hand03 Rope4_Seg09
[BasePosition]
#SegmentName Tx, Ty, Tz, Rx, Ry, Rz, BoneLength
MASTER 0.000000 0.000000 0.000000 -90.000000 0.000000 0.000000 10.000000 
root 0.000000 0.000000 0.000000 0.000000 0.000000 0.000000 10.000000 
chest 0.000000 0.000000 0.000000 0.000000 0.000000 0.000000 10.000000 
L_mid_tent01 0.000000 0.000000 0.000000 0.000000 0.000000 0.000000 10.000000 
R_mid_tent01 0.000000 0.000000 0.000000 0.000000 0.000000 0.000000 10.000000 
spine01 0.000000 0.000000 0.000000 0.000000 0.000000 0.000000 10.000000 
Bip01_Neck 0.000000 0.000000 0.000000 0.000000 0.000000 0.000000 10.000000 
L_humerus 0.000000 0.000000 0.000000 0.000000 0.000000 0.000000 10.000000 
R_humerus 0.000000 0.000000 0.000000 0.000000 0.000000 0.000000 10.000000 
weapon_bone 0.000000 0.000000 0.000000 0.000000 0.000000 0.000000 10.000000 
Bip01_Head 0.000000 0.000000 0.000000 0.000000 0.000000 0.000000 10.000000 
eye_left_bone 0.000000 0.000000 0.000000 0.000000 0.000000 0.000000 10.000000 
eye_right_bone 0.000000 0.000000 0.000000 0.000000 0.000000 0.000000 10.000000 
L_forearm 0.000000 0.000000 0.000000 0.000000 0.000000 0.000000 10.000000 
L_front_hand 0.000000 0.000000 0.000000 0.000000 0.000000 0.000000 10.000000 
L_weapon_bone 0.000000 0.000000 0.000000 0.000000 0.000000 0.000000 10.000000 
L_front_hand01_01 0.000000 0.000000 0.000000 0.000000 0.000000 0.000000 10.000000 
L_front_hand02_01 0.000000 0.000000 0.000000 0.000000 0.000000 0.000000 10.000000 
L_front_hand03_01 0.000000 0.000000 0.000000 0.000000 0.000000 0.000000 10.000000 
L_front_hand01_02 0.000000 0.000000 0.000000 0.000000 0.000000 0.000000 10.000000 
L_front_hand02_02 0.000000 0.000000 0.000000 0.000000 0.000000 0.000000 10.000000 
L_front_hand03_02 0.000000 0.000000 0.000000 0.000000 0.000000 0.000000 10.000000 
R_forearm 0.000000 0.000000 0.000000 0.000000 0.000000 0.000000 10.000000 
R_front_hand 0.000000 0.000000 0.000000 0.000000 0.000000 0.000000 10.000000 
R_weapon_bone 0.000000 0.000000 0.000000 0.000000 0.000000 0.000000 10.000000 
R_front_hand01_01 0.000000 0.000000 0.000000 0.000000 0.000000 0.000000 10.000000 
R_front_hand02_01 0.000000 0.000000 0.000000 0.000000 0.000000 0.000000 10.000000 
R_front_hand03_01 0.000000 0.000000 0.000000 0.000000 0.000000 0.000000 10.000000 
R_front_hand01_02 0.000000 0.000000 0.000000 0.000000 0.000000 0.000000 10.000000 
R_front_hand02_02 0.000000 0.000000 0.000000 0.000000 0.000000 0.000000 10.000000 
R_front_hand03_02 0.000000 0.000000 0.000000 0.000000 0.000000 0.000000 10.000000 
null_rope01_connect 0.000000 0.000000 0.000000 0.000000 0.000000 0.000000 10.000000 
Rope1_Seg01 0.000000 0.000000 0.000000 0.000000 0.000000 0.000000 10.000000 
Rope1_Seg02 0.000000 0.000000 0.000000 0.000000 0.000000 0.000000 10.000000 
Rope1_Seg03 0.000000 0.000000 0.000000 0.000000 0.000000 0.000000 10.000000 
Rope1_Seg04 0.000000 0.000000 0.000000 0.000000 0.000000 0.000000 10.000000 
Rope1_Seg05 0.000000 0.000000 0.000000 0.000000 0.000000 0.000000 10.000000 
Rope1_Seg06 0.000000 0.000000 0.000000 0.000000 0.000000 0.000000 10.000000 
Rope1_Seg07 0.000000 0.000000 0.000000 0.000000 0.000000 0.000000 10.000000 
Rope1_Seg09 0.000000 0.000000 0.000000 0.000000 0.000000 0.000000 10.000000 
L_mid_hand01 0.000000 0.000000 0.000000 0.000000 0.000000 0.000000 10.000000 
L_mid_hand02 0.000000 0.000000 0.000000 0.000000 0.000000 0.000000 10.000000 
L_mid_hand03 0.000000 0.000000 0.000000 0.000000 0.000000 0.000000 10.000000 
null_rope02_connect 0.000000 0.000000 0.000000 0.000000 0.000000 0.000000 10.000000 
Rope2_Seg01 0.000000 0.000000 0.000000 0.000000 0.000000 0.000000 10.000000 
Rope2_Seg02 0.000000 0.000000 0.000000 0.000000 0.000000 0.000000 10.000000 
Rope2_Seg03 0.000000 0.000000 0.000000 0.000000 0.000000 0.000000 10.000000 
Rope2_Seg04 0.000000 0.000000 0.000000 0.000000 0.000000 0.000000 10.000000 
Rope2_Seg05 0.000000 0.000000 0.000000 0.000000 0.000000 0.000000 10.000000 
Rope2_Seg06 0.000000 0.000000 0.000000 0.000000 0.000000 0.000000 10.000000 
Rope2_Seg07 0.000000 0.000000 0.000000 0.000000 0.000000 0.000000 10.000000 
Rope2_Seg09 0.000000 0.000000 0.000000 0.000000 0.000000 0.000000 10.000000 
R_mid_hand01 0.000000 0.000000 0.000000 0.000000 0.000000 0.000000 10.000000 
R_mid_hand02 0.000000 0.000000 0.000000 0.000000 0.000000 0.000000 10.000000 
R_mid_hand03 0.000000 0.000000 0.000000 0.000000 0.000000 0.000000 10.000000 
spine02 0.000000 0.000000 0.000000 0.000000 0.000000 0.000000 10.000000 
spine03 0.000000 0.000000 0.000000 0.000000 0.000000 0.000000 10.000000 
pelvis 0.000000 0.000000 0.000000 0.000000 0.000000 0.000000 10.000000 
null_rope03_connect 0.000000 0.000000 0.000000 0.000000 0.000000 0.000000 10.000000 
null_rope04_connect 0.000000 0.000000 0.000000 0.000000 0.000000 0.000000 10.000000 
Rope3_Seg01 0.000000 0.000000 0.000000 0.000000 0.000000 0.000000 10.000000 
Rope3_Seg02 0.000000 0.000000 0.000000 0.000000 0.000000 0.000000 10.000000 
Rope3_Seg03 0.000000 0.000000 0.000000 0.000000 0.000000 0.000000 10.000000 
Rope3_Seg04 0.000000 0.000000 0.000000 0.000000 0.000000 0.000000 10.000000 
Rope3_Seg05 0.000000 0.000000 0.000000 0.000000 0.000000 0.000000 10.000000 
Rope3_Seg06 0.000000 0.000000 0.000000 0.000000 0.000000 0.000000 10.000000 
Rope3_Seg07 0.000000 0.000000 0.000000 0.000000 0.000000 0.000000 10.000000 
Rope3_Seg08 0.000000 0.000000 0.000000 0.000000 0.000000 0.000000 10.000000 
Rope3_Seg09 0.000000 0.000000 0.000000 0.000000 0.000000 0.000000 10.000000 
R_rear_hand01 0.000000 0.000000 0.000000 0.000000 0.000000 0.000000 10.000000 
R_rear_hand02 0.000000 0.000000 0.000000 0.000000 0.000000 0.000000 10.000000 
R_rear_hand03 0.000000 0.000000 0.000000 0.000000 0.000000 0.000000 10.000000 
Rope4_Seg01 0.000000 0.000000 0.000000 0.000000 0.000000 0.000000 10.000000 
Rope4_Seg02 0.000000 0.000000 0.000000 0.000000 0.000000 0.000000 10.000000 
Rope4_Seg03 0.000000 0.000000 0.000000 0.000000 0.000000 0.000000 10.000000 
Rope4_Seg04 0.000000 0.000000 0.000000 0.000000 0.000000 0.000000 10.000000 
Rope4_Seg05 0.000000 0.000000 0.000000 0.000000 0.000000 0.000000 10.000000 
Rope4_Seg06 0.000000 0.000000 0.000000 0.000000 0.000000 0.000000 10.000000 
Rope4_Seg07 0.000000 0.000000 0.000000 0.000000 0.000000 0.000000 10.000000 
Rope4_Seg08 0.000000 0.000000 0.000000 0.000000 0.000000 0.000000 10.000000 
Rope4_Seg09 0.000000 0.000000 0.000000 0.000000 0.000000 0.000000 10.000000 
L_rear_hand01 0.000000 0.000000 0.000000 0.000000 0.000000 0.000000 10.000000 
L_rear_hand02 0.000000 0.000000 0.000000 0.000000 0.000000 0.000000 10.000000 
L_rear_hand03 0.000000 0.000000 0.000000 0.000000 0.000000 0.000000 10.000000 
#Beginning of Data. Separated by tabs
#Fr	Tx	Ty	Tz	Rx	Ry	Rz	SF
[MASTER]
20 0.000000 0.000000 0.000000 0.001660 0.001660 0.001660 0.000000
21 0.000000 0.000000 0.000000 0.001660 0.001660 0.001660 0.000000
[root]
20 -37.312866 20.051651 1406.483154 -91.728889 -11.584497 -89.471619 1407.120850
21 -37.882381 20.787548 1411.606934 -91.728889 -11.584497 -89.471619 1412.268066
[chest]
20 -84.512650 -34.090519 0.000000 -2.170494 -0.006436 168.239609 91.129311
21 -84.512650 -34.090519 0.000000 -2.170494 -0.006436 168.239609 91.129311
[L_mid_tent01]
20 27.299511 22.177458 -249.918259 -20.661396 12.026044 12.983024 252.381134
21 27.299511 22.177458 -249.918259 -20.661392 12.026043 12.983022 252.381134
[R_mid_tent01]
20 23.228794 24.509907 226.238495 -165.192200 -17.956036 24.056787 228.744751
21 23.228794 24.509907 226.238495 -165.192200 -17.956036 24.056787 228.744751
[spine01]
20 -0.361383 -0.195265 0.000000 -0.000001 -0.000007 22.052340 0.410763
21 -0.361383 -0.195265 0.000000 -0.000001 -0.000007 22.052340 0.410763
[Bip01_Neck]
20 165.484543 71.581718 0.000119 175.896118 1.177290 24.871183 180.302734
21 165.484543 71.581718 0.000119 175.896118 1.177290 24.871183 180.302734
[L_humerus]
20 -13.983130 -135.272980 -120.471481 -5.480129 68.873367 84.573456 181.680161
21 -13.983130 -135.272980 -120.471481 -5.480129 68.873367 84.573456 181.680161
[R_humerus]
20 -13.983309 -135.273102 125.287651 27.897165 -69.888802 67.752319 184.909012
21 -13.983309 -135.273102 125.287651 27.897165 -69.888802 67.752319 184.909012
[weapon_bone]
20 235.964890 -300.705902 0.000000 0.000000 -89.951546 -128.212341 382.234833
21 235.964890 -300.705902 0.000000 0.000000 -89.951546 -128.212341 382.234833
[Bip01_Head]
20 193.865707 99.525291 7.890739 1.727521 4.534425 -43.429157 218.062973
21 193.865707 99.525291 7.890739 1.727521 4.534425 -43.429157 218.062973
[eye_left_bone]
20 -24.626970 125.451866 -64.772606 0.000000 -90.000000 -99.840431 143.318359
21 -24.626970 125.451866 -64.772606 0.000000 -90.000000 -99.840431 143.318359
[eye_right_bone]
20 -24.626970 125.451866 64.327362 0.000000 -89.965736 80.156380 143.117676
21 -24.626970 125.451866 64.327362 0.000000 -89.965736 80.156380 143.117676
[L_forearm]
20 322.776093 0.000000 -0.000119 0.000396 -0.002314 -109.419975 322.776093
21 322.776093 0.000000 -0.000119 0.000396 -0.002314 -109.419975 322.776093
[L_front_hand]
20 241.149185 -0.042021 -3.300071 -179.659958 -2.242151 -0.019832 241.171753
21 241.149185 -0.042021 -3.300071 -179.659958 -2.242151 -0.019832 241.171753
[L_weapon_bone]
20 156.183838 0.000000 0.000000 0.000014 0.000007 0.000001 156.183838
21 156.183838 0.000000 0.000000 0.000014 0.000007 0.000001 156.183838
[L_front_hand01_01]
20 86.095154 20.947098 -0.655860 -0.366594 -0.477154 75.385574 88.609184
21 86.095154 20.947098 -0.655860 -0.366594 -0.477154 75.385574 88.609184
[L_front_hand02_01]
20 86.935165 -11.437475 24.513514 154.399796 -59.883835 -61.369587 91.046425
21 86.935165 -11.437475 24.513514 154.399796 -59.883835 -61.369587 91.046425
[L_front_hand03_01]
20 86.637497 -14.123976 -20.424902 -153.913849 58.118122 -62.702866 90.126129
21 86.637497 -14.123976 -20.424902 -153.913849 58.118130 -62.702866 90.126129
[L_front_hand01_02]
20 71.020905 -0.000179 0.000030 0.000334 -0.002323 -106.379684 71.020905
21 71.020905 -0.000179 0.000030 0.000334 -0.002323 -106.379684 71.020905
[L_front_hand02_02]
20 71.020927 -0.000119 0.000060 0.000334 -0.002323 -106.379684 71.020927
21 71.020927 -0.000119 0.000060 0.000334 -0.002323 -106.379684 71.020927
[L_front_hand03_02]
20 71.020905 -0.000060 0.000060 0.000334 -0.002323 -106.379684 71.020905
21 71.020905 -0.000060 0.000060 0.000334 -0.002323 -106.379684 71.020905
[R_forearm]
20 322.776428 -0.000060 0.000030 0.202103 0.065158 -108.062820 322.776428
21 322.776428 -0.000060 0.000030 0.202103 0.065158 -108.062805 322.776428
[R_front_hand]
20 238.847015 -0.006795 2.210259 -0.270529 1.703932 2.322530 238.857239
21 238.847015 -0.006795 2.210259 -0.270529 1.703932 2.322531 238.857239
[R_weapon_bone]
20 155.664093 0.002503 -0.000030 0.003487 0.001180 -90.988930 155.664078
21 155.664093 0.002503 -0.000030 0.003487 0.001180 -90.988930 155.664078
[R_front_hand01_01]
20 87.624611 14.231146 22.918642 -154.633484 -59.950619 61.746037 91.683487
21 87.624611 14.231146 22.918642 -154.633499 -59.950619 61.746044 91.683487
[R_front_hand02_01]
20 89.356956 14.367283 -19.491137 154.602661 58.302849 63.744389 92.579636
21 89.356956 14.367283 -19.491137 154.602661 58.302849 63.744389 92.579636
[R_front_hand03_01]
20 87.286232 -22.307278 -0.143439 0.162155 -0.423168 -75.767921 90.091743
21 87.286232 -22.307278 -0.143439 0.162155 -0.423168 -75.767921 90.091743
[R_front_hand01_02]
20 71.020905 0.000060 0.000119 0.002323 -0.000334 106.381714 71.020905
21 71.020905 0.000060 0.000119 0.002323 -0.000334 106.381714 71.020905
[R_front_hand02_02]
20 71.020844 -0.000030 -0.000119 0.002323 -0.000334 106.381714 71.020836
21 71.020844 -0.000030 -0.000119 0.002323 -0.000334 106.381714 71.020836
[R_front_hand03_02]
20 71.020905 0.000000 0.000030 0.002323 -0.000334 106.381714 71.020905
21 71.020905 0.000000 0.000030 0.002323 -0.000334 106.381714 71.020905
[null_rope01_connect]
20 328.732483 0.000000 -0.000238 -154.483337 -64.791321 -118.914307 328.732483
21 328.732483 0.000000 -0.000238 -154.483337 -64.791321 -118.914307 328.732483
[Rope1_Seg01]
20 -0.000038 -0.000114 0.000107 70.591743 2.056706 -129.989151 0.000162
21 -0.000038 -0.000114 0.000108 69.518692 2.553892 -129.261734 0.000162
[Rope1_Seg02]
20 139.999863 -0.000179 0.000000 -7.544392 3.550229 0.813830 139.999863
21 139.999863 -0.000179 0.000000 -6.924453 3.176549 0.711547 139.999863
[Rope1_Seg03]
20 139.999924 0.000060 -0.000060 -8.763664 3.624133 1.173074 139.999924
21 139.999924 0.000060 -0.000060 -7.727101 3.176753 0.912746 139.999924
[Rope1_Seg04]
20 139.999924 -0.000060 -0.000119 -6.956331 2.998436 0.468679 139.999924
21 139.999924 -0.000060 -0.000119 -6.008569 2.723032 0.136139 139.999924
[Rope1_Seg05]
20 139.999832 0.000119 -0.000060 -27.137121 7.882033 9.091682 139.999832
21 139.999832 0.000119 -0.000060 -25.511065 6.986965 8.091378 139.999832
[Rope1_Seg06]
20 139.999954 0.000119 -0.000060 -10.376701 1.231307 7.284865 139.999954
21 139.999954 0.000119 -0.000060 -10.207140 1.221677 6.525400 139.999954
[Rope1_Seg07]
20 139.999985 0.000060 0.000000 -3.573344 0.096881 3.210371 139.999985
21 139.999985 0.000060 0.000000 -3.625878 0.172700 2.901079 139.999985
[Rope1_Seg09]
20 121.602913 0.000119 -0.000089 -89.793175 -1.359789 0.847147 121.602913
21 121.602913 0.000119 -0.000089 -89.793175 -1.359789 0.847147 121.602913
[L_mid_hand01]
20 103.859421 1.038730 8.195221 106.855484 -31.239275 -9.461397 104.187431
21 103.859421 1.038730 8.195221 106.855484 -31.239275 -9.461397 104.187431
[L_mid_hand02]
20 105.572853 -4.139662 -10.864139 -142.331345 25.752670 -28.774628 106.211075
21 105.572853 -4.139662 -10.864139 -142.331345 25.752670 -28.774628 106.211075
[L_mid_hand03]
20 104.641464 17.579376 -3.913581 -16.122810 9.734291 34.223598 106.179977
21 104.641464 17.579376 -3.913581 -16.122810 9.734291 34.223598 106.179977
[null_rope02_connect]
20 328.732849 0.000179 -0.000119 -140.208786 68.099220 -35.150631 328.732849
21 328.732849 0.000179 -0.000119 -140.208786 68.099228 -35.150627 328.732849
[Rope2_Seg01]
20 0.000095 0.000153 0.000048 1.802434 8.483321 -38.064877 0.000186
21 0.000095 0.000153 0.000051 10.977724 8.872705 -40.100716 0.000187
[Rope2_Seg02]
20 139.999741 -0.000060 -0.000119 42.827763 -2.204825 -8.881888 139.999756
21 139.999741 -0.000060 -0.000119 37.787487 -3.232042 -7.288553 139.999756
[Rope2_Seg03]
20 140.000107 0.000030 0.000000 8.134269 -2.528486 -1.239468 140.000107
21 140.000107 0.000030 0.000000 2.823689 -1.070012 -0.277030 140.000107
[Rope2_Seg04]
20 139.999802 0.000000 -0.000060 9.367970 -3.707644 -1.617927 139.999802
21 139.999802 0.000000 -0.000060 9.130901 -3.151944 -1.461147 139.999802
[Rope2_Seg05]
20 139.999985 -0.000060 0.000119 23.289782 -19.093241 -7.064827 139.999985
21 139.999985 -0.000060 0.000119 23.501600 -17.899786 -6.449842 139.999985
[Rope2_Seg06]
20 139.999893 -0.000030 -0.000119 5.866741 -17.761353 0.733257 139.999893
21 139.999893 -0.000030 -0.000119 5.892422 -16.806793 0.957664 139.999893
[Rope2_Seg07]
20 139.999893 0.000060 -0.000060 1.191441 -7.489123 1.133097 139.999893
21 139.999893 0.000060 -0.000060 1.245030 -7.188036 1.192154 139.999893
[Rope2_Seg09]
20 121.338966 0.000089 -0.000060 33.793236 -1.359788 -0.847141 121.338966
21 121.338966 0.000089 -0.000060 33.793236 -1.359788 -0.847141 121.338966
[R_mid_hand01]
20 104.680779 11.144459 -10.335981 -41.523792 25.424656 28.595957 105.778534
21 104.680779 11.144459 -10.335981 -41.523792 25.424656 28.595957 105.778534
[R_mid_hand02]
20 104.070427 2.443552 8.231699 72.847389 -32.746803 10.013901 104.424065
21 104.070427 2.443552 8.231699 72.847389 -32.746803 10.013901 104.424065
[R_mid_hand03]
20 106.028137 -11.221827 -5.996406 -167.901306 10.259192 -37.009720 106.788818
21 106.028137 -11.221827 -5.996406 -167.901306 10.259192 -37.009720 106.788818
[spine02]
20 129.756927 0.001550 0.000119 0.360061 -4.044797 -12.915058 129.756927
21 129.756927 0.001550 0.000119 0.360061 -4.044797 -12.915058 129.756927
[spine03]
20 78.613846 0.087372 -4.898873 1.896495 3.831288 16.473045 78.766380
21 78.613846 0.087372 -4.898873 1.896495 3.831288 16.473045 78.766380
[pelvis]
20 169.435242 0.051022 0.000000 -0.060465 -0.180225 14.087930 169.435257
21 169.435242 0.051022 0.000000 -0.060465 -0.180225 14.087930 169.435257
[null_rope03_connect]
20 -1.257226 -2.466202 137.391083 156.329987 -89.381348 -94.430771 137.418976
21 -1.257226 -2.466202 137.391083 156.329987 -89.381348 -94.430771 137.418976
[null_rope04_connect]
20 -1.259640 -2.480268 -137.844437 156.329987 -89.381348 -94.430771 137.872513
21 -1.259640 -2.480268 -137.844437 156.329987 -89.381348 -94.430771 137.872513
[Rope3_Seg01]
20 0.000010 0.000038 -0.000114 -144.259521 28.567194 -104.440437 0.000121
21 0.000010 0.000038 -0.000114 -143.279663 26.994377 -104.344337 0.000121
[Rope3_Seg02]
20 139.999924 -0.000119 0.000060 0.180420 -7.033304 -9.036894 139.999924
21 139.999924 -0.000119 0.000060 -0.191745 -7.740208 -8.514303 139.999924
[Rope3_Seg03]
20 139.999924 -0.000119 0.000119 0.480919 -7.547458 -9.806161 139.999924
21 139.999924 -0.000119 0.000119 0.264648 -7.936169 -8.934463 139.999924
[Rope3_Seg04]
20 139.999924 0.000119 0.000000 1.364752 -11.050911 -13.612829 139.999924
21 139.999924 0.000119 0.000000 1.062359 -10.599336 -11.450418 139.999924
[Rope3_Seg05]
20 139.999924 -0.000238 0.000060 0.383469 -3.862668 -5.441825 139.999924
21 139.999924 -0.000238 0.000060 0.381063 -3.602060 -4.504399 139.999924
[Rope3_Seg06]
20 139.999893 -0.000119 -0.000060 0.118851 5.264947 4.270834 139.999893
21 139.999893 -0.000119 -0.000060 0.140500 4.189391 2.847810 139.999893
[Rope3_Seg07]
20 139.999771 0.000060 -0.000119 0.606265 6.729310 5.890860 139.999771
21 139.999771 0.000060 -0.000119 0.434904 4.789382 3.490356 139.999771
[Rope3_Seg08]
20 139.999985 -0.000060 0.000000 0.583765 2.860225 2.109047 139.999985
21 139.999985 -0.000060 0.000000 0.512693 1.842007 1.018973 139.999985
[Rope3_Seg09]
20 90.185997 -0.000179 -0.000060 89.793228 -1.359877 -0.847183 90.185997
21 90.185997 -0.000179 -0.000060 89.793228 -1.359877 -0.847183 90.185997
[R_rear_hand01]
20 103.366196 -6.073594 -10.757982 -161.551193 16.666374 -30.088671 104.101845
21 103.366196 -6.073594 -10.757982 -161.551193 16.666374 -30.088671 104.101845
[R_rear_hand02]
20 100.509819 12.039542 -7.992327 -34.280552 19.289745 28.875523 101.543350
21 100.509819 12.039542 -7.992327 -34.280552 19.289745 28.875523 101.543350
[R_rear_hand03]
20 101.539970 5.215704 5.435467 83.366440 -30.933914 7.284830 101.819031
21 101.539970 5.215704 5.435467 83.366440 -30.933914 7.284830 101.819031
[Rope4_Seg01]
20 0.000010 0.000038 -0.000114 36.647053 21.424719 -129.481049 0.000121
21 0.000010 0.000038 -0.000114 37.103600 22.908211 -127.753746 0.000121
[Rope4_Seg02]
20 139.999985 0.000060 0.000119 1.020997 6.254804 6.212351 139.999985
21 139.999985 0.000060 0.000119 0.903463 5.246540 5.828317 139.999985
[Rope4_Seg03]
20 139.999924 0.000000 -0.000238 1.146523 10.207311 10.002920 139.999924
21 139.999924 0.000000 -0.000238 0.938620 8.443446 9.235600 139.999924
[Rope4_Seg04]
20 139.999985 0.000000 0.000119 0.270559 22.850773 28.008375 139.999985
21 139.999985 0.000000 0.000119 -0.187241 19.362669 26.356722 139.999985
[Rope4_Seg05]
20 139.999802 -0.000060 -0.000119 -2.989268 10.193273 9.407282 139.999802
21 139.999802 -0.000060 -0.000119 -2.179959 9.688607 8.901154 139.999802
[Rope4_Seg06]
20 139.999924 0.000000 0.000060 16.784510 -9.469594 -28.428602 139.999924
21 139.999924 0.000000 0.000060 14.315382 -7.745598 -26.737263 139.999924
[Rope4_Seg07]
20 139.999802 0.000000 0.000000 3.491651 -7.632844 -12.214160 139.999802
21 139.999802 0.000000 0.000000 2.689530 -4.733429 -9.602034 139.999802
[Rope4_Seg08]
20 139.999924 0.000000 0.000119 -0.776749 -2.975950 -4.724132 139.999924
21 139.999924 0.000000 0.000119 -0.746159 -2.034822 -4.155968 139.999924
[Rope4_Seg09]
20 90.185791 0.000060 0.000060 -135.617828 2.228885 0.850567 90.185791
21 90.185791 0.000060 0.000060 -135.617828 2.228885 0.850567 90.185791
[L_rear_hand01]
20 101.696655 -8.392275 -7.654577 -34.454281 -18.946800 151.655121 102.329041
21 101.696655 -8.392275 -7.654577 -34.454281 -18.946800 151.655121 102.329041
[L_rear_hand02]
20 102.726799 -1.568258 5.773216 83.407906 30.330435 172.796509 102.900848
21 102.726799 -1.568258 5.773216 83.407906 30.330435 172.796509 102.900848
[L_rear_hand03]
20 104.552910 9.721220 -10.420293 -161.379868 -16.473232 -150.512238 105.519653
21 104.552910 9.721220 -10.420293 -161.379868 -16.473232 -150.512238 105.519653
